<?xml version="1.0" encoding="UTF-8" standalone="no"?><svg xmlns="http://www.w3.org/2000/svg" xmlns:xlink="http://www.w3.org/1999/xlink" width="724.47pt" height="271.75pt" viewBox="0 0 724.47 271.75" version="1.1" class="mx-auto w-full max-w-sm h-auto mt-16 px-4"><defs><clipPath id="clip1"><path d="M 259 206 L 724.46875 206 L 724.46875 271.75 L 259 271.75 Z M 259 206 "/></clipPath></defs><g id="surface1"><path style="stroke:none;fill-rule:nonzero;fill:rgb(84.298706%,10.799194%,12.5%);fill-opacity:1;" d="M 0 214.785156 L 177.804688 214.785156 L 177.804688 210.570313 L 0 210.570313 Z M 0 214.785156 "/><path style="stroke:none;fill-rule:nonzero;fill:rgb(84.298706%,9.799194%,12.5%);fill-opacity:1;" d="M 671.265625 214.785156 L 719.898438 214.785156 L 719.898438 210.570313 L 671.265625 210.570313 Z M 671.265625 214.785156 "/><path style="stroke:none;fill-rule:nonzero;fill:rgb(84.298706%,9.799194%,12.5%);fill-opacity:1;" d="M 618.730469 164.925781 C 618.730469 178.667969 618.589844 191.117188 618.445313 193.980469 L 610.574219 197.988281 L 609.714844 201.449219 C 614.152344 201.449219 619.589844 201.28125 624.171875 201.28125 C 629.894531 201.28125 635.191406 201.449219 638.769531 201.449219 L 639.628906 197.988281 L 631.039063 193.980469 C 630.753906 189.542969 630.753906 169.9375 630.753906 153.191406 C 635.476563 148.894531 641.34375 145.320313 645.921875 145.320313 C 657.660156 145.320313 659.664063 154.335938 659.664063 161.632813 C 659.664063 174.230469 659.519531 185.394531 659.378906 193.980469 L 652.507813 197.988281 L 651.648438 201.449219 C 656.371094 201.449219 661.09375 201.28125 665.671875 201.28125 C 670.253906 201.28125 675.121094 201.449219 679.128906 201.449219 L 680.128906 198.132813 L 671.683594 193.839844 L 671.683594 165.070313 C 671.683594 160.203125 671.253906 155.910156 670.828125 153.191406 C 676.691406 147.894531 682.132813 145.175781 687.285156 145.175781 C 698.589844 145.175781 700.59375 154.621094 700.59375 162.78125 C 700.734375 178.953125 700.308594 188.6875 700.019531 193.839844 L 693.726563 198.132813 L 692.867188 201.449219 C 697.730469 201.449219 702.3125 201.28125 706.746094 201.28125 C 712.046875 201.28125 717.339844 201.449219 722.203125 201.449219 L 722.921875 198.277344 L 715.335938 194.984375 C 713.617188 194.125 712.617188 193.410156 712.617188 192.121094 L 712.617188 158.058594 C 712.617188 145.605469 705.171875 136.585938 693.296875 136.585938 C 686.425781 136.585938 679.699219 140.023438 669.679688 148.324219 C 666.960938 141.023438 660.234375 136.585938 652.648438 136.585938 C 646.210938 136.585938 639.195313 140.882813 630.324219 148.179688 L 630.039063 148.179688 L 630.753906 136.585938 C 626.316406 136.730469 615.152344 140.453125 612.148438 141.882813 L 611.144531 144.746094 L 618.730469 147.894531 Z M 539.300781 146.320313 C 539.300781 156.339844 538.871094 170.652344 538.871094 180.097656 C 538.871094 188.402344 540.734375 194.125 544.597656 197.847656 C 548.316406 201.59375 554.042969 203.164063 558.910156 203.164063 C 567.636719 203.164063 574.367188 197.988281 579.804688 192.121094 L 580.089844 192.121094 C 581.808594 200.996094 588.675781 202.878906 593.828125 202.878906 C 597.40625 202.878906 600.558594 201.878906 601.984375 200.996094 L 602.84375 198.5625 C 598.980469 197.5625 594.546875 195.414063 591.683594 190.40625 C 591.683594 153.476563 591.683594 144.316406 592.113281 137.589844 C 586.816406 137.445313 576.226563 138.449219 571.214844 139.734375 L 569.785156 142.597656 C 576.65625 145.03125 578.660156 146.03125 579.660156 148.324219 L 579.660156 185.824219 C 576.65625 190.832031 569.929688 194.125 564.0625 194.125 C 559.195313 194.125 555.761719 192.265625 553.613281 189.972656 C 552.328125 188.113281 551.039063 185.109375 551.039063 179.527344 C 551.039063 155.335938 551.464844 144.03125 552.039063 137.589844 C 546.460938 137.589844 536.152344 138.734375 532.578125 139.878906 L 531.144531 142.742188 Z M 462.59375 160.777344 C 462.59375 178.8125 462.449219 191.835938 462.164063 194.125 L 454.292969 198.132813 L 453.289063 201.449219 C 457.871094 201.449219 463.308594 201.28125 468.316406 201.28125 C 472.894531 201.28125 478.335938 201.28125 482.054688 201.449219 L 482.914063 197.988281 L 474.898438 194.269531 C 474.613281 191.261719 474.613281 163.925781 474.613281 153.046875 C 478.046875 149.46875 484.488281 145.175781 490.5 145.175781 C 497.796875 145.175781 503.953125 149.613281 503.953125 160.488281 C 503.953125 179.238281 503.667969 189.402344 503.378906 193.695313 L 497.65625 197.847656 L 496.652344 201.449219 C 501.089844 201.449219 505.382813 201.28125 509.390625 201.28125 C 514.972656 201.28125 521.554688 201.449219 525.421875 201.449219 L 526.421875 198.132813 L 517.980469 194.554688 C 516.691406 193.980469 515.976563 193.265625 515.976563 191.835938 L 515.976563 159.34375 C 515.976563 148.753906 511.539063 136.585938 496.652344 136.585938 C 490.929688 136.585938 484.917969 139.019531 474.042969 147.894531 L 473.753906 147.894531 L 474.613281 136.585938 C 470.035156 136.730469 458.296875 140.59375 456.007813 141.882813 L 455.007813 144.886719 L 462.59375 148.179688 Z M 383.164063 146.320313 C 383.164063 156.339844 382.734375 170.652344 382.734375 180.097656 C 382.734375 188.402344 384.59375 194.125 388.457031 197.847656 C 392.179688 201.59375 397.902344 203.164063 402.769531 203.164063 C 411.5 203.164063 418.226563 197.988281 423.664063 192.121094 L 423.949219 192.121094 C 425.667969 200.996094 432.539063 202.878906 437.6875 202.878906 C 441.269531 202.878906 444.414063 201.878906 445.847656 200.996094 L 446.707031 198.5625 C 442.839844 197.5625 438.40625 195.414063 435.542969 190.40625 C 435.542969 153.476563 435.542969 144.316406 435.972656 137.589844 C 430.675781 137.445313 420.085938 138.449219 415.078125 139.734375 L 413.644531 142.597656 C 420.515625 145.03125 422.519531 146.03125 423.519531 148.324219 L 423.519531 185.824219 C 420.515625 190.832031 413.789063 194.125 407.921875 194.125 C 403.054688 194.125 399.621094 192.265625 397.476563 189.972656 C 396.1875 188.113281 394.898438 185.109375 394.898438 179.527344 C 394.898438 155.335938 395.328125 144.03125 395.898438 137.589844 C 390.320313 137.589844 380.015625 138.734375 376.4375 139.878906 L 375.003906 142.742188 Z M 346.097656 190.40625 C 341.519531 193.695313 337.367188 194.554688 334.503906 194.554688 C 321.765625 194.554688 312.320313 183.246094 312.320313 169.363281 C 312.320313 155.480469 321.910156 143.316406 335.503906 143.316406 C 338.941406 143.316406 343.234375 144.460938 346.097656 146.320313 Z M 358.117188 144.316406 C 358.117188 128.574219 358.261719 114.546875 358.546875 99.660156 C 348.816406 100.949219 341.230469 102.953125 337.9375 104.238281 L 336.648438 106.960938 L 345.667969 110.679688 C 345.953125 121.558594 346.097656 130.433594 346.097656 140.882813 L 345.953125 140.882813 C 341.089844 137.875 336.222656 136.585938 334.074219 136.585938 C 318.902344 136.585938 299.296875 148.46875 299.296875 171.511719 C 299.296875 193.839844 317.328125 203.164063 329.496094 203.164063 C 335.9375 203.164063 344.234375 196.84375 346.8125 194.984375 L 347.097656 194.984375 C 349.675781 200.996094 356.542969 203.164063 361.410156 203.164063 C 364.558594 203.164063 366.847656 202.59375 367.992188 201.734375 L 369.136719 199.277344 C 366.417969 198.277344 361.695313 195.699219 358.117188 190.832031 Z M 261.515625 143.457031 L 269.242188 147.179688 L 269.242188 165.214844 C 269.242188 176.664063 269.101563 188.972656 268.957031 193.839844 L 260.800781 198.132813 L 259.796875 201.449219 C 265.378906 201.449219 270.101563 201.28125 274.683594 201.28125 C 280.261719 201.28125 285.703125 201.449219 290.710938 201.449219 L 291.714844 198.132813 L 281.550781 193.839844 C 281.410156 189.832031 281.265625 181.53125 281.265625 165.5 L 281.265625 136.585938 C 273.105469 137.445313 264.519531 140.023438 262.230469 140.738281 Z M 274.824219 107.105469 C 272.394531 108.535156 269.101563 111.96875 267.097656 115.261719 L 266.8125 116.40625 C 268.097656 119.125 271.390625 123.132813 273.824219 124.566406 L 274.96875 124.277344 C 276.972656 123.132813 281.265625 118.839844 282.550781 116.121094 L 282.839844 114.976563 C 281.550781 111.96875 277.6875 107.675781 275.683594 106.960938 Z M 219.871094 202.59375 C 227.597656 202.59375 231.03125 202.878906 234.46875 203.453125 C 239.046875 204.597656 241.765625 207.890625 241.765625 212.46875 C 241.765625 223.488281 231.316406 228.644531 219.4375 228.644531 C 210.710938 228.644531 200.835938 224.777344 200.835938 215.476563 C 200.835938 212.324219 205.273438 206.316406 207.703125 204.167969 C 209.566406 203.308594 212.140625 202.59375 219.726563 202.59375 Z M 217.867188 141.453125 C 226.882813 141.453125 230.890625 151.042969 230.890625 158.773438 C 230.890625 168.789063 226.453125 176.664063 218.152344 176.664063 C 209.136719 176.664063 204.984375 167.359375 204.984375 159.058594 C 204.984375 150.328125 209.136719 141.453125 217.722656 141.453125 Z M 247.921875 144.601563 L 253.789063 135.730469 L 253.214844 134.296875 L 240.90625 139.449219 C 238.332031 139.164063 235.183594 138.589844 230.605469 137.734375 C 226.882813 137.160156 223.878906 136.585938 219.726563 136.585938 C 202.265625 136.585938 192.820313 148.46875 192.820313 159.917969 C 192.820313 167.933594 196.6875 173.945313 201.839844 177.09375 C 197.257813 180.957031 191.964844 186.398438 191.964844 188.257813 C 191.964844 191.117188 194.253906 195.128906 196.6875 197.5625 C 198.976563 199.851563 200.980469 201.136719 203.125 202.164063 L 203.125 202.449219 L 191.53125 215.046875 C 190.386719 216.335938 189.386719 217.765625 189.386719 219.484375 C 189.386719 229.070313 199.976563 236.085938 214.144531 236.085938 C 225.164063 236.085938 234.039063 231.9375 240.050781 227.210938 C 246.917969 222.203125 252.070313 215.191406 252.070313 207.171875 C 252.070313 202.019531 249.496094 197.847656 247.0625 195.699219 C 244.773438 193.695313 242.195313 192.40625 238.046875 191.835938 C 228.742188 190.6875 214.144531 191.546875 208.132813 192.121094 C 205.128906 191.976563 201.410156 188.257813 201.410156 185.535156 C 201.410156 184.394531 203.125 181.386719 205.414063 179.097656 C 208.707031 180.671875 212.714844 181.671875 217.292969 181.671875 C 231.460938 181.671875 242.625 172.796875 242.625 159.34375 C 242.625 152.476563 239.621094 147.320313 237.757813 145.460938 L 237.757813 145.175781 Z M 119.402344 160.777344 C 119.402344 178.8125 119.257813 191.835938 118.972656 194.125 L 111.101563 198.132813 L 110.101563 201.449219 C 114.679688 201.449219 120.117188 201.28125 125.128906 201.28125 C 129.707031 201.28125 135.144531 201.28125 138.867188 201.449219 L 139.726563 197.988281 L 131.710938 194.269531 C 131.421875 191.261719 131.421875 163.925781 131.421875 153.046875 C 134.859375 149.46875 141.300781 145.175781 147.3125 145.175781 C 154.609375 145.175781 160.761719 149.613281 160.761719 160.488281 C 160.761719 179.238281 160.476563 189.402344 160.191406 193.695313 L 154.464844 197.847656 L 153.464844 201.449219 C 157.898438 201.449219 162.191406 201.28125 166.199219 201.28125 C 171.785156 201.28125 178.367188 201.449219 182.230469 201.449219 L 183.230469 198.132813 L 174.789063 194.554688 C 173.5 193.980469 172.785156 193.265625 172.785156 191.835938 L 172.785156 159.34375 C 172.785156 148.753906 168.347656 136.585938 153.464844 136.585938 C 147.738281 136.585938 141.726563 139.019531 130.851563 147.894531 L 130.5625 147.894531 L 131.421875 136.585938 C 126.84375 136.730469 115.109375 140.59375 112.816406 141.882813 L 111.816406 144.886719 L 119.402344 148.179688 Z M 73.175781 143.457031 L 80.90625 147.179688 L 80.90625 165.214844 C 80.90625 176.664063 80.761719 188.972656 80.617188 193.839844 L 72.460938 198.132813 L 71.460938 201.449219 C 77.042969 201.449219 81.761719 201.28125 86.34375 201.28125 C 91.925781 201.28125 97.363281 201.449219 102.371094 201.449219 L 103.371094 198.132813 L 93.210938 193.839844 C 93.070313 189.832031 92.925781 181.53125 92.925781 165.5 L 92.925781 136.585938 C 84.769531 137.445313 76.183594 140.023438 73.894531 140.738281 Z M 86.484375 107.105469 C 84.054688 108.535156 80.761719 111.96875 78.757813 115.261719 L 78.472656 116.40625 C 79.757813 119.125 83.050781 123.132813 85.484375 124.566406 L 86.628906 124.277344 C 88.632813 123.132813 92.925781 118.839844 94.214844 116.121094 L 94.5 114.976563 C 93.210938 111.96875 89.347656 107.675781 87.34375 106.960938 Z M 31.671875 104.382813 C 13.496094 104.382813 3.191406 117.550781 3.191406 130.433594 C 3.191406 139.019531 6.914063 146.75 16.789063 152.761719 C 23.660156 157.054688 30.957031 160.347656 38.257813 164.355469 C 45.414063 168.507813 48.5625 173.226563 48.5625 179.527344 C 48.5625 191.261719 40.117188 197.988281 27.234375 198.132813 C 19.652344 198.277344 15.070313 196.558594 13.210938 195.558594 C 10.347656 181.53125 9.488281 177.378906 8.773438 175.519531 L 6.484375 176.519531 C 5.195313 178.667969 0.761719 190.546875 0.0429688 194.410156 C 4.050781 198.417969 16.503906 204.023438 28.09375 204.023438 C 40.261719 204.023438 61.582031 198.277344 61.582031 175.660156 C 61.582031 167.789063 58.863281 159.773438 44.699219 152.332031 C 36.679688 148.035156 29.097656 144.460938 23.230469 140.882813 C 17.789063 137.589844 14.929688 133.582031 14.929688 126.855469 C 14.929688 118.125 21.511719 110.394531 32.816406 110.394531 C 38.828125 110.394531 43.550781 112.539063 45.414063 113.972656 C 46.269531 116.691406 48.703125 124.566406 50.421875 128 L 52.566406 126.855469 C 54.714844 121.703125 57.148438 109.105469 57.71875 105.097656 L 56.429688 104.382813 C 53.140625 105.527344 48.847656 107.390625 46.84375 108.964844 C 43.980469 106.816406 38.683594 104.382813 31.816406 104.382813 "/><g clip-path="url(#clip1)" clip-rule="nonzero"><path style="stroke:none;fill-rule:nonzero;fill:rgb(84.298706%,9.799194%,12.5%);fill-opacity:1;" d="M 712.800781 223.816406 L 716.136719 225.703125 C 714.902344 229.761719 711.785156 238.246094 708.957031 245.566406 L 708.8125 245.566406 C 704.898438 234.835938 702.507813 228.386719 701.636719 225.628906 L 703.957031 223.816406 L 704.464844 222.078125 C 702.144531 222.152344 699.824219 222.152344 697.578125 222.152344 C 695.257813 222.152344 693.011719 222.152344 690.761719 222.078125 L 690.101563 223.746094 C 693.300781 224.90625 694.171875 225.488281 695.183594 226.9375 C 698.085938 233.75 704.824219 252.019531 705.550781 253.398438 C 704.464844 255.875 702.796875 259.496094 701.855469 261.382813 C 699.316406 264.285156 696.128906 268.125 695.546875 269.429688 C 696.128906 270.300781 698.59375 271.75 700.769531 271.75 C 701.492188 271.75 702.074219 271.675781 702.433594 271.460938 C 703.085938 268.996094 703.664063 266.023438 704.320313 263.269531 C 711.0625 247.308594 716.859375 232.734375 719.613281 226.792969 C 720.628906 225.703125 721.863281 224.761719 724.035156 223.746094 L 724.472656 222.078125 C 722.660156 222.078125 720.484375 222.152344 718.308594 222.152344 C 716.789063 222.152344 714.828125 222.078125 713.378906 222.078125 Z M 661.554688 222.152344 L 661.769531 211.636719 C 660.828125 211.636719 658.363281 212.65625 657.417969 213.8125 C 656.550781 216.277344 655.753906 220.121094 655.460938 222.152344 L 651.695313 222.152344 L 650.460938 224.6875 L 655.320313 225.628906 L 655.320313 244.046875 C 655.320313 248.753906 655.824219 250.28125 656.984375 251.875 C 658.652344 253.761719 661.117188 254.933594 663.945313 254.933594 C 667.714844 254.933594 670.539063 253.324219 672.351563 251.148438 L 672.425781 248.902344 L 672.136719 248.753906 C 670.976563 249.625 668.945313 250.496094 666.261719 250.496094 C 664.523438 250.496094 663.4375 249.992188 662.640625 249.410156 C 662.203125 248.902344 661.480469 247.816406 661.480469 246.003906 C 661.480469 237.300781 661.554688 229.039063 661.554688 225.628906 L 671.265625 224.761719 L 672.644531 222.152344 Z M 615.738281 224.6875 L 619.652344 226.574219 L 619.652344 235.707031 C 619.652344 241.507813 619.578125 247.742188 619.507813 250.207031 L 615.378906 252.382813 L 614.867188 254.0625 C 617.695313 254.0625 620.089844 253.976563 622.40625 253.976563 C 625.234375 253.976563 627.988281 254.0625 630.527344 254.0625 L 631.035156 252.382813 L 625.890625 250.207031 C 625.816406 248.175781 625.742188 243.972656 625.742188 235.851563 L 625.742188 221.207031 C 621.609375 221.644531 617.261719 222.949219 616.101563 223.308594 Z M 622.480469 206.273438 C 621.246094 207 619.578125 208.738281 618.566406 210.40625 L 618.421875 210.984375 C 619.074219 212.363281 620.742188 214.394531 621.972656 215.117188 L 622.554688 214.972656 C 623.566406 214.394531 625.742188 212.21875 626.394531 210.839844 L 626.539063 210.261719 C 625.890625 208.738281 623.929688 206.5625 622.914063 206.203125 Z M 581.960938 221.207031 C 574.710938 221.207031 571.15625 226.066406 571.15625 230.632813 C 571.15625 234.691406 573.550781 237.375 577.539063 239.1875 C 580.21875 240.492188 582.613281 241.582031 584.570313 242.667969 C 586.816406 243.753906 587.46875 245.058594 587.46875 247.015625 C 587.46875 249.992188 584.570313 252.308594 580.730469 252.308594 C 578.988281 252.308594 577.394531 252.019531 576.304688 251.585938 C 575.507813 249.625 573.914063 245.203125 572.898438 243.320313 L 571.882813 243.898438 C 571.449219 244.914063 570.21875 250.425781 570.21875 251.800781 C 572.753906 253.542969 576.886719 254.933594 580.730469 254.933594 C 585.222656 254.933594 593.488281 252.671875 593.488281 244.769531 C 593.488281 241.722656 591.964844 239.042969 587.976563 237.085938 C 585.511719 235.851563 581.523438 234.183594 579.277344 232.953125 C 577.320313 231.792969 576.667969 230.707031 576.667969 228.964844 C 576.667969 226.355469 578.554688 223.960938 582.175781 223.960938 C 584.714844 223.960938 586.019531 224.832031 586.453125 225.195313 C 587.179688 227.007813 588.195313 229.328125 588.992188 230.78125 L 590.007813 230.339844 C 590.730469 228.675781 591.746094 222.875 591.746094 221.570313 L 591.164063 221.0625 C 589.933594 221.5 588.554688 222.152344 587.398438 222.949219 C 585.65625 221.789063 583.628906 221.207031 582.03125 221.207031 Z M 525.996094 225.121094 L 529.769531 227.226563 C 529.769531 230.78125 529.769531 242.738281 529.480469 250.28125 L 525.34375 252.453125 L 524.984375 254.0625 C 527.15625 254.0625 530.199219 253.976563 532.523438 253.976563 C 536.4375 253.976563 540.0625 254.0625 542.816406 254.0625 L 543.179688 252.453125 L 535.859375 250.351563 L 535.859375 232.011719 C 537.234375 228.53125 540.28125 225.773438 542.453125 225.773438 C 542.960938 225.773438 543.25 225.847656 543.539063 225.992188 C 544.554688 228.386719 545.425781 229.835938 546.152344 230.847656 L 547.019531 230.339844 C 547.964844 228.53125 549.195313 224.46875 549.414063 222.441406 C 548.6875 221.644531 547.3125 221.207031 545.859375 221.207031 C 543.03125 221.207031 538.757813 223.164063 535.785156 228.3125 L 535.640625 228.3125 C 535.710938 226.066406 535.347656 222.875 534.914063 221.207031 C 532.738281 221.351563 527.664063 223.089844 526.578125 223.671875 Z M 482.285156 234.332031 C 482.285156 231.214844 484.679688 223.746094 490.695313 223.746094 C 494.902344 223.746094 497.074219 227.804688 497.074219 232.15625 C 497.074219 232.953125 496.929688 233.824219 496.710938 234.332031 Z M 495.988281 237.085938 C 499.320313 237.085938 502.074219 236.359375 502.800781 236.070313 C 503.308594 235.707031 503.527344 234.621094 503.527344 233.75 C 503.527344 225.628906 497.871094 221.207031 491.277344 221.207031 C 483.011719 221.207031 475.546875 228.3125 475.546875 238.679688 C 475.546875 248.683594 481.925781 254.933594 490.914063 254.933594 C 493.449219 254.933594 497.148438 253.832031 498.523438 253.179688 C 499.46875 252.527344 502.222656 249.554688 502.65625 247.960938 L 502.292969 246.800781 C 500.699219 247.597656 498.523438 249.046875 496.203125 250.714844 C 495.554688 251.003906 494.753906 251.148438 493.738281 251.148438 C 487.21875 251.148438 482.144531 246.292969 482.144531 238.097656 C 482.144531 237.738281 482.144531 237.445313 482.214844 237.085938 Z M 421.675781 223.746094 C 423.933594 224.617188 425.3125 225.269531 426.542969 227.007813 C 431.617188 239.117188 437.34375 253.902344 437.996094 255.292969 L 438.648438 255.292969 C 439.519531 254.496094 440.753906 252.816406 441.40625 251.4375 C 444.015625 244.84375 450.464844 229.328125 451.625 227.152344 C 452.929688 225.558594 453.871094 224.832031 456.121094 223.890625 L 456.628906 222.078125 C 454.960938 222.152344 452.640625 222.152344 450.613281 222.152344 C 449.015625 222.152344 446.914063 222.152344 445.679688 222.078125 L 445.175781 223.816406 L 448.289063 226.066406 C 443.867188 238.464844 442.277344 242.59375 440.824219 246.148438 L 440.679688 246.074219 C 437.054688 236.867188 434.300781 229.980469 432.851563 225.773438 L 435.097656 223.960938 L 435.679688 222.078125 C 433.503906 222.152344 431.328125 222.152344 429.152344 222.152344 C 426.472656 222.152344 424.296875 222.152344 422.339844 222.078125 Z M 388.632813 224.6875 L 392.546875 226.574219 L 392.546875 235.707031 C 392.546875 241.507813 392.472656 247.742188 392.402344 250.207031 L 388.269531 252.382813 L 387.761719 254.0625 C 390.589844 254.0625 392.984375 253.976563 395.300781 253.976563 C 398.128906 253.976563 400.882813 254.0625 403.417969 254.0625 L 403.929688 252.382813 L 398.78125 250.207031 C 398.710938 248.175781 398.636719 243.972656 398.636719 235.851563 L 398.636719 221.207031 C 394.503906 221.644531 390.15625 222.949219 388.996094 223.308594 Z M 395.371094 206.273438 C 394.140625 207 392.472656 208.738281 391.460938 210.40625 L 391.3125 210.984375 C 391.964844 212.363281 393.636719 214.394531 394.867188 215.117188 L 395.445313 214.972656 C 396.460938 214.394531 398.636719 212.21875 399.289063 210.839844 L 399.433594 210.261719 C 398.78125 208.738281 396.824219 206.5625 395.808594 206.203125 Z M 335.207031 233.460938 C 335.207031 242.59375 335.136719 249.191406 334.988281 250.351563 L 331.003906 252.382813 L 330.496094 254.0625 C 332.816406 254.0625 335.570313 253.976563 338.109375 253.976563 C 340.425781 253.976563 343.183594 253.976563 345.066406 254.0625 L 345.5 252.308594 L 341.441406 250.425781 C 341.296875 248.902344 341.296875 235.054688 341.296875 229.542969 C 343.035156 227.730469 346.300781 225.558594 349.34375 225.558594 C 353.039063 225.558594 356.15625 227.804688 356.15625 233.316406 C 356.15625 242.8125 356.011719 247.960938 355.867188 250.132813 L 352.96875 252.238281 L 352.460938 254.0625 C 354.710938 254.0625 356.882813 253.976563 358.910156 253.976563 C 361.738281 253.976563 365.074219 254.0625 367.03125 254.0625 L 367.539063 252.382813 L 363.261719 250.570313 C 362.609375 250.28125 362.246094 249.917969 362.246094 249.191406 L 362.246094 232.734375 C 362.246094 227.371094 360 221.207031 352.460938 221.207031 C 349.5625 221.207031 346.519531 222.441406 341.007813 226.9375 L 340.863281 226.9375 L 341.296875 221.207031 C 338.976563 221.28125 333.035156 223.238281 331.871094 223.890625 L 331.367188 225.414063 L 335.207031 227.082031 Z M 259.820313 207.941406 L 265.835938 210.117188 C 266.050781 214.753906 265.910156 226.140625 265.980469 236.722656 C 266.050781 241 266.5625 244.40625 268.230469 247.089844 C 271.5625 252.816406 277.941406 255.21875 284.902344 255.21875 C 292.367188 255.21875 297.878906 252.164063 300.992188 247.308594 C 303.023438 244.261719 303.894531 240.492188 303.964844 235.996094 C 304.546875 213.667969 304.617188 211.710938 304.835938 210.191406 L 310.707031 207.941406 L 311.140625 206.203125 C 308.605469 206.203125 305.488281 206.347656 302.660156 206.347656 C 300.414063 206.347656 298.09375 206.203125 295.703125 206.203125 L 295.195313 207.941406 L 300.488281 210.191406 C 300.632813 218.164063 300.847656 226.863281 300.558594 236.867188 C 300.414063 241 299.542969 243.972656 297.949219 246.148438 C 295.554688 249.265625 291.640625 251.222656 286.496094 251.222656 C 281.277344 251.222656 277 249.121094 274.609375 245.785156 C 273.15625 243.609375 272.503906 241.144531 272.503906 238.027344 C 272.503906 227.585938 272.503906 219.179688 272.578125 210.191406 L 276.492188 207.941406 L 276.925781 206.203125 C 274.609375 206.203125 271.710938 206.347656 269.027344 206.347656 C 266.199219 206.347656 263.300781 206.203125 260.398438 206.203125 "/></g><path style="stroke:none;fill-rule:evenodd;fill:rgb(100%,100%,100%);fill-opacity:1;" d="M 179.984375 0.164063 C 213.136719 0.164063 240.019531 27.046875 240.019531 60.199219 C 240.019531 93.351563 213.136719 120.234375 179.984375 120.234375 C 146.832031 120.234375 119.949219 93.351563 119.949219 60.199219 C 119.949219 27.046875 146.832031 0.164063 179.984375 0.164063 "/><path style="stroke:none;fill-rule:evenodd;fill:rgb(84.298706%,9.799194%,12.5%);fill-opacity:1;" d="M 197.832031 51.128906 L 179.367188 81.339844 L 160.902344 51.082031 "/><path style="fill:none;stroke-width:3.32;stroke-linecap:butt;stroke-linejoin:miter;stroke:rgb(96.099854%,51.399231%,27.099609%);stroke-opacity:1;stroke-miterlimit:2.613;" d="M 1978.320313 2206.210938 L 1793.671875 1904.101563 L 1609.023438 2206.679688 Z M 1978.320313 2206.210938 " transform="matrix(0.1,0,0,-0.1,0,271.75)"/><path style="stroke:none;fill-rule:evenodd;fill:rgb(84.298706%,9.799194%,12.5%);fill-opacity:1;" d="M 158.757813 46.53125 L 179.980469 9.894531 L 201.207031 46.582031 "/><path style="fill:none;stroke-width:3.32;stroke-linecap:butt;stroke-linejoin:miter;stroke:rgb(13.699341%,12.199402%,12.5%);stroke-opacity:1;stroke-miterlimit:2.613;" d="M 1587.578125 2252.1875 L 1799.804688 2618.554688 L 2012.070313 2251.679688 Z M 1587.578125 2252.1875 " transform="matrix(0.1,0,0,-0.1,0,271.75)"/><path style="stroke:none;fill-rule:evenodd;fill:rgb(84.298706%,9.799194%,12.5%);fill-opacity:1;" d="M 156.539063 51.253906 L 177.480469 85.230469 L 136.871094 85.195313 "/><path style="fill:none;stroke-width:3.32;stroke-linecap:butt;stroke-linejoin:miter;stroke:rgb(13.699341%,12.199402%,12.5%);stroke-opacity:1;stroke-miterlimit:2.613;" d="M 1565.390625 2204.960938 L 1774.804688 1865.195313 L 1368.710938 1865.546875 Z M 1565.390625 2204.960938 " transform="matrix(0.1,0,0,-0.1,0,271.75)"/><path style="stroke:none;fill-rule:evenodd;fill:rgb(84.298706%,9.799194%,12.5%);fill-opacity:1;" d="M 203.277344 51.054688 L 223.09375 85.3125 L 182.332031 85.203125 "/><path style="fill:none;stroke-width:3.32;stroke-linecap:butt;stroke-linejoin:miter;stroke:rgb(13.699341%,12.199402%,12.5%);stroke-opacity:1;stroke-miterlimit:2.613;" d="M 2032.773438 2206.953125 L 2230.9375 1864.375 L 1823.320313 1865.46875 Z M 2032.773438 2206.953125 " transform="matrix(0.1,0,0,-0.1,0,271.75)"/><path style="stroke:none;fill-rule:evenodd;fill:rgb(97.299194%,78.799438%,15.299988%);fill-opacity:1;" d="M 179.832031 80.578125 L 197.832031 51.128906 L 161.835938 51.085938 Z M 159.292969 46.5 L 200.507813 46.550781 L 200.671875 46.550781 L 179.980469 10.785156 Z M 176.933594 84.339844 L 156.539063 51.253906 L 137.371094 84.339844 Z M 203.195313 51.1875 L 182.859375 84.339844 L 222.59375 84.445313 L 203.277344 51.054688 Z M 130.601563 86.542969 C 146.492188 59.117188 162.378906 31.6875 178.269531 4.261719 C 177.992188 4.269531 177.714844 4.28125 177.4375 4.296875 C 148.515625 16.253906 127.425781 60.628906 130.183594 85.746094 C 130.320313 86.011719 130.460938 86.277344 130.601563 86.542969 M 227.777344 89.21875 C 195.871094 89.179688 163.960938 89.144531 132.054688 89.097656 C 132.21875 89.371094 132.386719 89.640625 132.554688 89.90625 C 157.140625 108.921875 205.59375 105.71875 227.777344 89.21875 M 181.699219 4.261719 L 229.066406 86.144531 C 231.542969 54.121094 207.722656 14.816406 181.9375 4.269531 Z M 128.007813 80.96875 C 128.601563 55.929688 147.070313 18.691406 172.414063 4.746094 C 145.089844 8.441406 124.019531 31.863281 124.019531 60.203125 C 124.019531 67.539063 125.4375 74.546875 128.007813 80.96875 M 224.664063 93.898438 C 201.734375 107.097656 160.980469 109.476563 136.183594 95.03125 C 146.4375 107.90625 162.25 116.164063 179.984375 116.164063 C 198.234375 116.164063 214.449219 107.425781 224.664063 93.898438 M 186.855469 4.652344 C 210.5 17.554688 231.292969 52.507813 231.191406 82.800781 C 234.25 75.886719 235.953125 68.242188 235.953125 60.203125 C 235.953125 31.621094 214.519531 8.042969 186.855469 4.652344 M 179.984375 0.164063 C 213.136719 0.164063 240.023438 27.046875 240.023438 60.199219 C 240.023438 93.351563 213.136719 120.234375 179.984375 120.234375 C 146.835938 120.234375 119.949219 93.351563 119.949219 60.199219 C 119.949219 27.046875 146.835938 0.164063 179.984375 0.164063 "/><path style="fill:none;stroke-width:3.32;stroke-linecap:butt;stroke-linejoin:miter;stroke:rgb(13.699341%,12.199402%,12.5%);stroke-opacity:1;stroke-miterlimit:2.613;" d="M 1798.320313 1911.71875 L 1978.320313 2206.210938 L 1618.359375 2206.640625 Z M 1592.929688 2252.5 L 2005.078125 2251.992188 L 2006.71875 2251.992188 L 1799.804688 2609.648438 Z M 1769.335938 1874.101563 L 1565.390625 2204.960938 L 1373.710938 1874.101563 Z M 2031.953125 2205.625 L 1828.59375 1874.101563 L 2225.9375 1873.046875 L 2032.773438 2206.953125 Z M 1306.015625 1852.070313 C 1464.921875 2126.328125 1623.789063 2400.625 1782.695313 2674.882813 C 1779.921875 2674.804688 1777.148438 2674.6875 1774.375 2674.53125 C 1485.15625 2554.960938 1274.257813 2111.210938 1301.835938 1860.039063 C 1303.203125 1857.382813 1304.609375 1854.726563 1306.015625 1852.070313 Z M 2277.773438 1825.3125 C 1958.710938 1825.703125 1639.609375 1826.054688 1320.546875 1826.523438 C 1322.1875 1823.789063 1323.867188 1821.09375 1325.546875 1818.4375 C 1571.40625 1628.28125 2055.9375 1660.3125 2277.773438 1825.3125 Z M 1816.992188 2674.882813 L 2290.664063 1856.054688 C 2315.429688 2176.289063 2077.226563 2569.335938 1819.375 2674.804688 Z M 1280.078125 1907.8125 C 1286.015625 2158.203125 1470.703125 2530.585938 1724.140625 2670.039063 C 1450.898438 2633.085938 1240.195313 2398.867188 1240.195313 2115.46875 C 1240.195313 2042.109375 1254.375 1972.03125 1280.078125 1907.8125 Z M 2246.640625 1778.515625 C 2017.34375 1646.523438 1609.804688 1622.734375 1361.835938 1767.1875 C 1464.375 1638.4375 1622.5 1555.859375 1799.84375 1555.859375 C 1982.34375 1555.859375 2144.492188 1643.242188 2246.640625 1778.515625 Z M 1868.554688 2670.976563 C 2105 2541.953125 2312.929688 2192.421875 2311.914063 1889.492188 C 2342.5 1958.632813 2359.53125 2035.078125 2359.53125 2115.46875 C 2359.53125 2401.289063 2145.195313 2637.070313 1868.554688 2670.976563 Z M 1799.84375 2715.859375 C 2131.367188 2715.859375 2400.234375 2447.03125 2400.234375 2115.507813 C 2400.234375 1783.984375 2131.367188 1515.15625 1799.84375 1515.15625 C 1468.359375 1515.15625 1199.492188 1783.984375 1199.492188 2115.507813 C 1199.492188 2447.03125 1468.359375 2715.859375 1799.84375 2715.859375 Z M 1799.84375 2715.859375 " transform="matrix(0.1,0,0,-0.1,0,271.75)"/><path style="stroke:none;fill-rule:evenodd;fill:rgb(100%,100%,100%);fill-opacity:1;" d="M 176.496094 50.535156 C 176.507813 50.464844 176.523438 50.398438 176.539063 50.335938 C 176.9375 50.300781 176.96875 50.265625 177.300781 50.265625 C 177.328125 50.320313 177.355469 50.378906 177.382813 50.433594 C 177.085938 50.464844 176.789063 50.496094 176.496094 50.535156 M 176.691406 47.421875 C 176.644531 47.351563 176.644531 47.351563 176.472656 47.289063 C 175.8125 46.535156 174.988281 47.054688 175.160156 45.992188 C 175.222656 45.984375 175.285156 45.980469 175.34375 45.976563 C 175.355469 45.828125 175.347656 45.714844 175.449219 45.613281 C 175.773438 45.925781 176.097656 46.210938 176.464844 46.515625 C 176.710938 46.949219 177.101563 46.800781 177.101563 47.390625 C 176.964844 47.402344 176.824219 47.410156 176.691406 47.421875 M 172.9375 42.039063 C 172.769531 41.761719 172.574219 41.476563 172.902344 41.261719 C 172.914063 41.003906 172.867188 40.902344 172.890625 40.65625 C 173.273438 40.773438 173.542969 40.910156 173.871094 41.050781 C 174.132813 41.480469 174.394531 41.796875 174.617188 42.238281 C 174.097656 42.238281 173.503906 42.0625 172.9375 42.039063 M 171.257813 42.089844 C 171.011719 42.015625 170.964844 41.964844 170.75 41.902344 C 170.730469 41.707031 170.808594 41.527344 170.9375 41.398438 C 171.117188 41.574219 171.285156 41.5 171.46875 41.40625 C 171.496094 41.285156 171.523438 41.171875 171.558594 41.050781 C 171.933594 41.113281 171.972656 41.605469 172.097656 41.941406 C 171.769531 41.960938 171.507813 42.089844 171.257813 42.089844 M 174.367188 39.375 C 174.730469 39.5 175.203125 39.820313 175.523438 40.042969 C 175.507813 40.003906 175.9375 40.414063 176.347656 40.460938 C 176.347656 40.789063 175.90625 41.140625 175.851563 41.644531 C 175.378906 41.644531 174.417969 39.871094 174.367188 39.375 M 189.640625 84.339844 C 189.679688 83.582031 188.972656 83.058594 188.667969 82.117188 C 188.1875 79.007813 189.050781 75.792969 189.105469 72.703125 C 188.695313 70.8125 187.980469 69.222656 187.328125 67.414063 C 187.03125 65.925781 186.832031 65.152344 186.640625 64.050781 C 186.640625 61.5625 185.363281 59.574219 185.304688 57.472656 C 186.546875 56.257813 187.195313 56.027344 187.277344 53.996094 C 186.875 52.085938 185.949219 50.023438 185.152344 48.214844 C 185.117188 48.203125 185.078125 48.1875 185.046875 48.175781 C 185.007813 48.085938 185.007813 48.085938 185.0625 45.925781 C 185.976563 44.554688 185.601563 42.765625 186.050781 41.308594 C 186.394531 40.746094 186.40625 40.617188 186.589844 39.96875 C 186.8125 39.457031 186.746094 38.59375 186.6875 38.035156 C 186.484375 37.347656 186.484375 37.347656 186.292969 36.929688 C 186.292969 36.203125 186.015625 35.316406 185.292969 34.996094 C 185.28125 34.863281 185.015625 34.6875 184.898438 34.613281 C 184.730469 34.230469 184.21875 33.945313 183.972656 33.609375 C 183.714844 32.863281 183.578125 32.152344 183.566406 31.367188 C 183.8125 30.75 183.660156 29.84375 183.773438 29.195313 C 183.867188 28.957031 183.964844 28.714844 184.058594 28.480469 C 184.089844 28.476563 184.117188 28.476563 184.144531 28.46875 C 184.167969 28.273438 184.203125 28.097656 184.363281 27.960938 C 185.035156 26.171875 185.046875 24.765625 183.375 23.546875 C 181.847656 23.089844 180.429688 23.386719 178.90625 23.730469 C 178.28125 23.730469 177.625 23.640625 177.035156 23.855469 C 176.941406 24.132813 177.089844 24.289063 176.820313 24.460938 C 176.808594 24.75 176.886719 24.855469 177.035156 25.105469 L 177.109375 25.246094 C 177.105469 25.269531 177.105469 25.289063 177.105469 25.3125 C 177.007813 25.839844 176.871094 26.050781 176.988281 26.394531 C 176.910156 26.5625 176.972656 26.753906 177.082031 26.902344 C 177.125 27.023438 177.085938 27.0625 177.046875 27.128906 C 176.722656 27.523438 176.554688 28.011719 176.296875 28.664063 C 176.222656 28.882813 176.394531 29.035156 176.574219 29.074219 C 176.761719 29.097656 176.828125 28.820313 176.9375 29.140625 C 176.988281 29.394531 176.890625 29.492188 176.917969 29.644531 C 176.9375 29.785156 177.179688 29.8125 177.257813 29.925781 C 177.035156 30.074219 177.003906 30.371094 177.292969 30.476563 C 176.96875 31.015625 176.953125 31.46875 177.480469 31.769531 C 177.796875 31.945313 178.761719 31.816406 179.121094 31.78125 C 179.3125 31.730469 179.417969 31.675781 179.566406 31.625 C 179.605469 31.613281 179.640625 31.605469 179.671875 31.601563 C 179.957031 31.765625 179.792969 32.324219 179.738281 32.6875 C 179.703125 32.703125 179.664063 32.714844 179.636719 32.730469 C 179.503906 33.628906 179.671875 34.457031 179.476563 35.339844 C 178.796875 35.664063 177.425781 38.003906 176.855469 38.6875 C 175.015625 37.972656 174.203125 34.882813 172.394531 34.050781 C 171.515625 33.707031 171.253906 33.730469 170.417969 34.144531 C 170.390625 34.382813 170.449219 34.914063 170.234375 34.996094 C 170.183594 34.882813 170.027344 34.628906 169.921875 34.59375 C 169.375 33.898438 168.148438 33.914063 167.925781 34.871094 C 167.894531 35.210938 167.515625 35.027344 167.558594 35.589844 C 168.28125 35.628906 168.710938 35.203125 168.976563 36.058594 C 168.773438 36.019531 168.835938 37.148438 168.828125 37.355469 C 168.148438 37.609375 170.160156 39.449219 170.410156 39.644531 C 170.464844 40.117188 170.167969 40.992188 169.828125 41.328125 C 168.921875 41.335938 168.746094 41.304688 168.613281 42.167969 C 168.460938 42.316406 168.066406 42.371094 168.035156 42.597656 C 167.488281 42.675781 167.847656 43.628906 168.597656 43.253906 C 169.40625 43.355469 170.195313 43.546875 171.003906 43.640625 C 171.8125 44.039063 172.582031 43.632813 173.421875 43.882813 C 173.46875 44.050781 173.386719 44.375 173.566406 44.398438 L 173.566406 44.46875 C 173.09375 44.601563 173.058594 45.132813 173.058594 45.546875 C 173.253906 45.761719 173.394531 45.894531 173.480469 46.164063 C 173.507813 46.171875 173.535156 46.175781 173.566406 46.175781 C 173.546875 46.574219 173.589844 46.621094 173.214844 46.773438 C 173.164063 47.210938 173.140625 47.539063 173.355469 47.949219 C 173.355469 48.085938 173.308594 48.183594 173.308594 48.382813 C 173.460938 48.816406 173.632813 49.195313 173.855469 49.605469 C 173.835938 49.65625 173.816406 49.710938 173.800781 49.769531 C 173.121094 49.898438 172.460938 49.617188 171.78125 49.949219 C 171.777344 50.390625 171.71875 50.730469 171.980469 51.089844 C 172.6875 51.085938 173.398438 51.082031 174.109375 51.082031 L 175.921875 65.789063 C 175.921875 67.738281 176.316406 69.71875 176.539063 71.652344 C 176.664063 71.667969 176.636719 73.558594 176.972656 73.953125 C 177.101563 73.785156 177.101563 73.785156 177.203125 73.484375 C 177.238281 73.246094 177.742188 69.617188 177.851563 69.019531 L 177.847656 68.546875 L 177.847656 68.542969 C 177.753906 68.109375 177.710938 67.554688 177.714844 67.074219 C 177.65625 66.519531 177.597656 65.96875 177.539063 65.417969 L 177.539063 65.40625 L 176.21875 52.511719 C 176.164063 51.910156 176.164063 51.910156 176.1875 51.839844 C 176.988281 51.839844 176.988281 51.839844 177.546875 51.894531 C 178.726563 52.617188 178.714844 54.335938 179.324219 56.140625 C 179.023438 57.863281 178.558594 59.875 178.589844 61.597656 C 177.449219 64.480469 177.972656 65.371094 178.257813 68.195313 L 178.414063 69.054688 C 178.421875 69.082031 178.429688 69.113281 178.4375 69.148438 C 178.550781 69.464844 178.300781 69.019531 178.09375 71.164063 C 177.660156 74.460938 177.5 78.660156 175.9375 81.546875 C 174.730469 81.769531 173.382813 82.617188 173.171875 82.699219 C 172.402344 82.984375 168.578125 82.820313 169.15625 84.339844 L 179.308594 84.339844 C 179.148438 83.582031 179.148438 82.746094 179.078125 81.980469 C 179.460938 79.992188 180.574219 77.683594 181.363281 75.792969 C 181.894531 75.261719 181.910156 74.347656 181.996094 73.644531 C 181.800781 70.089844 181.800781 70.089844 181.800781 69.039063 C 181.871094 68.550781 182.09375 68.089844 182.09375 67.609375 C 182.203125 67.300781 182.203125 67.300781 182.277344 67.242188 C 182.339844 67.3125 182.339844 67.3125 182.4375 67.808594 C 182.835938 68.695313 182.835938 68.695313 182.972656 69.132813 C 183 69.136719 183.027344 69.140625 183.0625 69.148438 C 183.191406 69.492188 183.492188 69.546875 183.609375 69.808594 C 183.636719 69.816406 183.667969 69.828125 183.699219 69.839844 C 183.71875 69.914063 183.742188 69.996094 183.761719 70.074219 C 183.789063 70.078125 183.820313 70.078125 183.851563 70.085938 C 184.171875 70.898438 184.078125 71.78125 184.171875 72.648438 C 184.214844 72.683594 184.214844 72.683594 184.265625 73.878906 C 184.472656 74.78125 184.472656 74.78125 184.5625 75.511719 C 184.933594 76.421875 184.863281 77.472656 185.203125 78.371094 C 185.3125 79.65625 185.539063 80.929688 185.660156 82.214844 C 185.398438 82.496094 185.367188 82.714844 185.007813 82.8125 C 184.292969 83.078125 180.734375 82.925781 181.269531 84.339844 L 181.28125 84.339844 L 181.269531 84.339844 "/><path style="fill:none;stroke-width:3.33;stroke-linecap:butt;stroke-linejoin:miter;stroke:rgb(13.699341%,12.199402%,12.5%);stroke-opacity:1;stroke-miterlimit:2.613;" d="M 1764.960938 2212.148438 C 1765.078125 2212.851563 1765.234375 2213.515625 1765.390625 2214.140625 C 1769.375 2214.492188 1769.6875 2214.84375 1773.007813 2214.84375 C 1773.28125 2214.296875 1773.554688 2213.710938 1773.828125 2213.164063 C 1770.859375 2212.851563 1767.890625 2212.539063 1764.960938 2212.148438 Z M 1766.914063 2243.28125 C 1766.445313 2243.984375 1766.445313 2243.984375 1764.726563 2244.609375 C 1758.125 2252.148438 1749.882813 2246.953125 1751.601563 2257.578125 C 1752.226563 2257.65625 1752.851563 2257.695313 1753.4375 2257.734375 C 1753.554688 2259.21875 1753.476563 2260.351563 1754.492188 2261.367188 C 1757.734375 2258.242188 1760.976563 2255.390625 1764.648438 2252.34375 C 1767.109375 2248.007813 1771.015625 2249.492188 1771.015625 2243.59375 C 1769.648438 2243.476563 1768.242188 2243.398438 1766.914063 2243.28125 Z M 1729.375 2297.109375 C 1727.695313 2299.882813 1725.742188 2302.734375 1729.023438 2304.882813 C 1729.140625 2307.460938 1728.671875 2308.476563 1728.90625 2310.9375 C 1732.734375 2309.765625 1735.429688 2308.398438 1738.710938 2306.992188 C 1741.328125 2302.695313 1743.945313 2299.53125 1746.171875 2295.117188 C 1740.976563 2295.117188 1735.039063 2296.875 1729.375 2297.109375 Z M 1712.578125 2296.601563 C 1710.117188 2297.34375 1709.648438 2297.851563 1707.5 2298.476563 C 1707.304688 2300.429688 1708.085938 2302.226563 1709.375 2303.515625 C 1711.171875 2301.757813 1712.851563 2302.5 1714.6875 2303.4375 C 1714.960938 2304.648438 1715.234375 2305.78125 1715.585938 2306.992188 C 1719.335938 2306.367188 1719.726563 2301.445313 1720.976563 2298.085938 C 1717.695313 2297.890625 1715.078125 2296.601563 1712.578125 2296.601563 Z M 1743.671875 2323.75 C 1747.304688 2322.5 1752.03125 2319.296875 1755.234375 2317.070313 C 1755.078125 2317.460938 1759.375 2313.359375 1763.476563 2312.890625 C 1763.476563 2309.609375 1759.0625 2306.09375 1758.515625 2301.054688 C 1753.789063 2301.054688 1744.179688 2318.789063 1743.671875 2323.75 Z M 1896.40625 1874.101563 C 1896.796875 1881.679688 1889.726563 1886.914063 1886.679688 1896.328125 C 1881.875 1927.421875 1890.507813 1959.570313 1891.054688 1990.46875 C 1886.953125 2009.375 1879.804688 2025.273438 1873.28125 2043.359375 C 1870.3125 2058.242188 1868.320313 2065.976563 1866.40625 2076.992188 C 1866.40625 2101.875 1853.632813 2121.757813 1853.046875 2142.773438 C 1865.46875 2154.921875 1871.953125 2157.226563 1872.773438 2177.539063 C 1868.75 2196.640625 1859.492188 2217.265625 1851.523438 2235.351563 C 1851.171875 2235.46875 1850.78125 2235.625 1850.46875 2235.742188 C 1850.078125 2236.640625 1850.078125 2236.640625 1850.625 2258.242188 C 1859.765625 2271.953125 1856.015625 2289.84375 1860.507813 2304.414063 C 1863.945313 2310.039063 1864.0625 2311.328125 1865.898438 2317.8125 C 1868.125 2322.929688 1867.460938 2331.5625 1866.875 2337.148438 C 1864.84375 2344.023438 1864.84375 2344.023438 1862.929688 2348.203125 C 1862.929688 2355.46875 1860.15625 2364.335938 1852.929688 2367.539063 C 1852.8125 2368.867188 1850.15625 2370.625 1848.984375 2371.367188 C 1847.304688 2375.195313 1842.1875 2378.046875 1839.726563 2381.40625 C 1837.148438 2388.867188 1835.78125 2395.976563 1835.664063 2403.828125 C 1838.125 2410 1836.601563 2419.0625 1837.734375 2425.546875 C 1838.671875 2427.929688 1839.648438 2430.351563 1840.585938 2432.695313 C 1840.898438 2432.734375 1841.171875 2432.734375 1841.445313 2432.8125 C 1841.679688 2434.765625 1842.03125 2436.523438 1843.632813 2437.890625 C 1850.351563 2455.78125 1850.46875 2469.84375 1833.75 2482.03125 C 1818.476563 2486.601563 1804.296875 2483.632813 1789.0625 2480.195313 C 1782.8125 2480.195313 1776.25 2481.09375 1770.351563 2478.945313 C 1769.414063 2476.171875 1770.898438 2474.609375 1768.203125 2472.890625 C 1768.085938 2470 1768.867188 2468.945313 1770.351563 2466.445313 L 1771.09375 2465.039063 C 1771.054688 2464.804688 1771.054688 2464.609375 1771.054688 2464.375 C 1770.078125 2459.101563 1768.710938 2456.992188 1769.882813 2453.554688 C 1769.101563 2451.875 1769.726563 2449.960938 1770.820313 2448.476563 C 1771.25 2447.265625 1770.859375 2446.875 1770.46875 2446.210938 C 1767.226563 2442.265625 1765.546875 2437.382813 1762.96875 2430.859375 C 1762.226563 2428.671875 1763.945313 2427.148438 1765.742188 2426.757813 C 1767.617188 2426.523438 1768.28125 2429.296875 1769.375 2426.09375 C 1769.882813 2423.554688 1768.90625 2422.578125 1769.179688 2421.054688 C 1769.375 2419.648438 1771.796875 2419.375 1772.578125 2418.242188 C 1770.351563 2416.757813 1770.039063 2413.789063 1772.929688 2412.734375 C 1769.6875 2407.34375 1769.53125 2402.8125 1774.804688 2399.804688 C 1777.96875 2398.046875 1787.617188 2399.335938 1791.210938 2399.6875 C 1793.125 2400.195313 1794.179688 2400.742188 1795.664063 2401.25 C 1796.054688 2401.367188 1796.40625 2401.445313 1796.71875 2401.484375 C 1799.570313 2399.84375 1797.929688 2394.257813 1797.382813 2390.625 C 1797.03125 2390.46875 1796.640625 2390.351563 1796.367188 2390.195313 C 1795.039063 2381.210938 1796.71875 2372.929688 1794.765625 2364.101563 C 1787.96875 2360.859375 1774.257813 2337.460938 1768.554688 2330.625 C 1750.15625 2337.773438 1742.03125 2368.671875 1723.945313 2376.992188 C 1715.15625 2380.429688 1712.539063 2380.195313 1704.179688 2376.054688 C 1703.90625 2373.671875 1704.492188 2368.359375 1702.34375 2367.539063 C 1701.835938 2368.671875 1700.273438 2371.210938 1699.21875 2371.5625 C 1693.75 2378.515625 1681.484375 2378.359375 1679.257813 2368.789063 C 1678.945313 2365.390625 1675.15625 2367.226563 1675.585938 2361.601563 C 1682.8125 2361.210938 1687.109375 2365.46875 1689.765625 2356.914063 C 1687.734375 2357.304688 1688.359375 2346.015625 1688.28125 2343.945313 C 1681.484375 2341.40625 1701.601563 2323.007813 1704.101563 2321.054688 C 1704.648438 2316.328125 1701.679688 2307.578125 1698.28125 2304.21875 C 1689.21875 2304.140625 1687.460938 2304.453125 1686.132813 2295.820313 C 1684.609375 2294.335938 1680.664063 2293.789063 1680.351563 2291.523438 C 1674.882813 2290.742188 1678.476563 2281.210938 1685.976563 2284.960938 C 1694.0625 2283.945313 1701.953125 2282.03125 1710.039063 2281.09375 C 1718.125 2277.109375 1725.820313 2281.171875 1734.21875 2278.671875 C 1734.6875 2276.992188 1733.867188 2273.75 1735.664063 2273.515625 L 1735.664063 2272.8125 C 1730.9375 2271.484375 1730.585938 2266.171875 1730.585938 2262.03125 C 1732.539063 2259.882813 1733.945313 2258.554688 1734.804688 2255.859375 C 1735.078125 2255.78125 1735.351563 2255.742188 1735.664063 2255.742188 C 1735.46875 2251.757813 1735.898438 2251.289063 1732.148438 2249.765625 C 1731.640625 2245.390625 1731.40625 2242.109375 1733.554688 2238.007813 C 1733.554688 2236.640625 1733.085938 2235.664063 1733.085938 2233.671875 C 1734.609375 2229.335938 1736.328125 2225.546875 1738.554688 2221.445313 C 1738.359375 2220.9375 1738.164063 2220.390625 1738.007813 2219.804688 C 1731.210938 2218.515625 1724.609375 2221.328125 1717.8125 2218.007813 C 1717.773438 2213.59375 1717.1875 2210.195313 1719.804688 2206.601563 C 1726.875 2206.640625 1733.984375 2206.679688 1741.09375 2206.679688 L 1759.21875 2059.609375 C 1759.21875 2040.117188 1763.164063 2020.3125 1765.390625 2000.976563 C 1766.640625 2000.820313 1766.367188 1981.914063 1769.726563 1977.96875 C 1771.015625 1979.648438 1771.015625 1979.648438 1772.03125 1982.65625 C 1772.382813 1985.039063 1777.421875 2021.328125 1778.515625 2027.304688 L 1778.476563 2032.03125 L 1778.476563 2032.070313 C 1777.539063 2036.40625 1777.109375 2041.953125 1777.148438 2046.757813 C 1776.5625 2052.304688 1775.976563 2057.8125 1775.390625 2063.320313 L 1775.390625 2063.4375 L 1762.1875 2192.382813 C 1761.640625 2198.398438 1761.640625 2198.398438 1761.875 2199.101563 C 1769.882813 2199.101563 1769.882813 2199.101563 1775.46875 2198.554688 C 1787.265625 2191.328125 1787.148438 2174.140625 1793.242188 2156.09375 C 1790.234375 2138.867188 1785.585938 2118.75 1785.898438 2101.523438 C 1774.492188 2072.695313 1779.726563 2063.789063 1782.578125 2035.546875 L 1784.140625 2026.953125 C 1784.21875 2026.679688 1784.296875 2026.367188 1784.375 2026.015625 C 1785.507813 2022.851563 1783.007813 2027.304688 1780.9375 2005.859375 C 1776.601563 1972.890625 1775 1930.898438 1759.375 1902.03125 C 1747.304688 1899.804688 1733.828125 1891.328125 1731.71875 1890.507813 C 1724.023438 1887.65625 1685.78125 1889.296875 1691.5625 1874.101563 L 1793.085938 1874.101563 C 1791.484375 1881.679688 1791.484375 1890.039063 1790.78125 1897.695313 C 1794.609375 1917.578125 1805.742188 1940.664063 1813.632813 1959.570313 C 1818.945313 1964.882813 1819.101563 1974.023438 1819.960938 1981.054688 C 1818.007813 2016.601563 1818.007813 2016.601563 1818.007813 2027.109375 C 1818.710938 2031.992188 1820.9375 2036.601563 1820.9375 2041.40625 C 1822.03125 2044.492188 1822.03125 2044.492188 1822.773438 2045.078125 C 1823.398438 2044.375 1823.398438 2044.375 1824.375 2039.414063 C 1828.359375 2030.546875 1828.359375 2030.546875 1829.726563 2026.171875 C 1830 2026.132813 1830.273438 2026.09375 1830.625 2026.015625 C 1831.914063 2022.578125 1834.921875 2022.03125 1836.09375 2019.414063 C 1836.367188 2019.335938 1836.679688 2019.21875 1836.992188 2019.101563 C 1837.1875 2018.359375 1837.421875 2017.539063 1837.617188 2016.757813 C 1837.890625 2016.71875 1838.203125 2016.71875 1838.515625 2016.640625 C 1841.71875 2008.515625 1840.78125 1999.6875 1841.71875 1991.015625 C 1842.148438 1990.664063 1842.148438 1990.664063 1842.65625 1978.710938 C 1844.726563 1969.6875 1844.726563 1969.6875 1845.625 1962.382813 C 1849.335938 1953.28125 1848.632813 1942.773438 1852.03125 1933.789063 C 1853.125 1920.9375 1855.390625 1908.203125 1856.601563 1895.351563 C 1853.984375 1892.539063 1853.671875 1890.351563 1850.078125 1889.375 C 1842.929688 1886.71875 1807.34375 1888.242188 1812.695313 1874.101563 L 1812.8125 1874.101563 L 1812.695313 1874.101563 Z M 1896.40625 1874.101563 " transform="matrix(0.1,0,0,-0.1,0,271.75)"/><path style="stroke:none;fill-rule:evenodd;fill:rgb(84.298706%,9.799194%,12.5%);fill-opacity:1;" d="M 128.007813 80.96875 C 125.4375 74.546875 124.019531 67.539063 124.019531 60.199219 C 124.019531 31.863281 145.089844 8.445313 172.414063 4.746094 C 147.070313 18.691406 128.601563 55.929688 128.007813 80.96875 "/><path style="fill:none;stroke-width:3.32;stroke-linecap:butt;stroke-linejoin:miter;stroke:rgb(13.699341%,12.199402%,12.5%);stroke-opacity:1;stroke-miterlimit:2.613;" d="M 1280.078125 1907.8125 C 1254.375 1972.03125 1240.195313 2042.109375 1240.195313 2115.507813 C 1240.195313 2398.867188 1450.898438 2633.046875 1724.140625 2670.039063 C 1470.703125 2530.585938 1286.015625 2158.203125 1280.078125 1907.8125 Z M 1280.078125 1907.8125 " transform="matrix(0.1,0,0,-0.1,0,271.75)"/><path style="stroke:none;fill-rule:evenodd;fill:rgb(84.298706%,9.799194%,12.5%);fill-opacity:1;" d="M 224.664063 93.902344 C 214.449219 107.425781 198.234375 116.167969 179.984375 116.167969 C 162.246094 116.167969 146.4375 107.90625 136.183594 95.03125 C 160.980469 109.480469 201.734375 107.101563 224.664063 93.902344 "/><path style="fill:none;stroke-width:3.32;stroke-linecap:butt;stroke-linejoin:miter;stroke:rgb(13.699341%,12.199402%,12.5%);stroke-opacity:1;stroke-miterlimit:2.613;" d="M 2246.640625 1778.476563 C 2144.492188 1643.242188 1982.34375 1555.820313 1799.84375 1555.820313 C 1622.460938 1555.820313 1464.375 1638.4375 1361.835938 1767.1875 C 1609.804688 1622.695313 2017.34375 1646.484375 2246.640625 1778.476563 Z M 2246.640625 1778.476563 " transform="matrix(0.1,0,0,-0.1,0,271.75)"/><path style="stroke:none;fill-rule:evenodd;fill:rgb(84.298706%,9.799194%,12.5%);fill-opacity:1;" d="M 186.863281 4.65625 C 214.523438 8.046875 235.949219 31.625 235.949219 60.199219 C 235.949219 68.242188 234.25 75.882813 231.195313 82.792969 C 231.289063 52.507813 210.5 17.554688 186.863281 4.65625 "/><path style="fill:none;stroke-width:3.32;stroke-linecap:butt;stroke-linejoin:miter;stroke:rgb(13.699341%,12.199402%,12.5%);stroke-opacity:1;stroke-miterlimit:2.613;" d="M 1868.632813 2670.9375 C 2145.234375 2637.03125 2359.492188 2401.25 2359.492188 2115.507813 C 2359.492188 2035.078125 2342.5 1958.671875 2311.953125 1889.570313 C 2312.890625 2192.421875 2105 2541.953125 1868.632813 2670.9375 Z M 1868.632813 2670.9375 " transform="matrix(0.1,0,0,-0.1,0,271.75)"/><path style="stroke:none;fill-rule:evenodd;fill:rgb(84.298706%,9.799194%,12.5%);fill-opacity:1;" d="M 320.097656 214.785156 L 380.609375 214.785156 L 380.609375 210.570313 L 320.097656 210.570313 Z M 320.097656 214.785156 "/><path style="stroke:none;fill-rule:evenodd;fill:rgb(84.298706%,9.799194%,12.5%);fill-opacity:1;" d="M 409.273438 214.785156 L 606.269531 214.785156 L 606.269531 210.570313 L 409.273438 210.570313 Z M 409.273438 214.785156 "/><path style="stroke:none;fill-rule:evenodd;fill:rgb(84.298706%,9.799194%,12.5%);fill-opacity:1;" d="M 638.472656 214.785156 L 646.46875 214.785156 L 646.46875 210.570313 L 638.472656 210.570313 Z M 638.472656 214.785156 "/></g></svg>